 http://www.torrentday.com - Your Key To The Scene.

 
http://www.torrentday.com :  Clean RAR Scene Releases!


Enjoy =)

...................................NFO:....................................

.
                                                     
                                                   
                                                         
                                                          
                                                           
                                                          
                                                          
                                                          
                                                           
                                                         
                                                          
                                                        
                                                      
                                     
                                                 
                                                   
                                             
                                              
                                                     
                                                      
                                                      
                                                      
                                                    
                                                     
                                                   
                                                     
                                                     
                                                      
                                                     
                                                      
                                                    
                 ARTiCHOKE                        
                                                
                      
                                                        
                                                      
                                                      
                                               
                                          
                                                   
                                            
                                                    
                                                       
                                                        
                                                      
                                                
                                                        
                                                 
                                              
                                                  
                                                
                                                  
                                        

      
                                
      SPRiNTER proudly presents...     
                                
      
 
 Anywhere.But.Here.1999.iNTERNAL.DVDRip.XviD-SPRiNTER  http://www.imdb.com/title/tt0149691/
 Subtitles: Espanol, France, English.

 Date: 2010.03

 Director: Wayne Wang
 Plot: A mother and daughter search for success in Beverly Hills.
 Genre: Comedy | Drama

 Cast

Susan Sarandon	 ...	Adele August
Natalie Portman	 ...	Ann August
Hart Bochner	 ...	Josh Spritzer
Eileen Ryan	 ...	Lillian
Ray Baker	 ...	Ted	
John Diehl	 ...	Jimmy
Shawn Hatosy	 ...	Benny
Bonnie Bedelia	 ...	Carol
Faran Tahir	 ...	Hisham Badir
Shishir Kurup	 ...	Hisham Badir (voice)
Samantha Goldstein	 ...	4 Year Old Ann
Scott Burkholder	 ...	Man with Mercedes
Yvonna Kopacz Wright	 ...	Assistant Hotel Manager (as Yvonna Kopacz)
Eva Amurri	 ...	Girl on T.V.
Kieren van den Blink	 ...	Girl on T.V.


      
                 
      Release notes     
                 
      

 Enjoy!


      
           
     Greetings    
           
      


NTX aAF FiCO HNR CiNEFiLE AEN HUMANiSM


      
           
      Details     
           
      

Format                           : AVI
Format/Info                      : Audio Video Interleave
File size                        : 1.37 GiB
Duration                         : 1h 53mn
Overall bit rate                 : 1 719 Kbps
Writing application              : VirtualDubMod 1.5.10.2 (build 2540/release)
Writing library                  : VirtualDubMod build 2540/release

Video
ID                               : 0
Format                           : MPEG-4 Visual
Format profile                   : AdvancedSimple@L5
Format settings, BVOP            : Yes
Format settings, QPel            : No
Format settings, GMC             : No warppoints
Format settings, Matrix          : Default (H.263)
Codec ID                         : XVID
Codec ID/Hint                    : XviD
Duration                         : 1h 53mn
Bit rate                         : 1 261 Kbps
Width                            : 640 pixels
Height                           : 272 pixels
Display aspect ratio             : 2.35:1
Frame rate                       : 23.976 fps
Resolution                       : 24 bits
Colorimetry                      : 4:2:0
Scan type                        : Progressive
Bits/(Pixel*Frame)               : 0.302
Stream size                      : 1.00 GiB (73%)
Writing library                  : XviD 1.2.1 (UTC 2008-12-04)

Audio
ID                               : 1
Format                           : AC-3
Format/Info                      : Audio Coding 3
Codec ID                         : 2000
Duration                         : 1h 53mn
Bit rate mode                    : Constant
Bit rate                         : 448 Kbps
Channel(s)                       : 5 channels
Channel positions                : Front: L C R, Surround: L R
Sampling rate                    : 48.0 KHz
Video delay                      : 1ms
Stream size                      : 365 MiB (26%)
Alignment                        : Split accross interleaves
Interleave, duration             : 42 ms (1.00 video frame)
Interleave, preload duration     : 500 ms